<svg width="50.113px" height="50.113px" viewBox="-3.84 0 50.113 50.113" xmlns="http://www.w3.org/2000/svg">
  <g id="Group_1632" data-name="Group 1632" transform="translate(3012.416 -2328.143)">
    <path id="Path_3628" data-name="Path 3628" d="M-2988.116,2337.859c-1.186,10.674-9.449,11.607-11.614,11.7a13.83,13.83,0,0,1,1.183-2.367c-6.943,1.4-12.909-4.617-12.909-4.617a19.687,19.687,0,0,1,7.811-7.42,7,7,0,0,1-2.021-2.186c5.077-1.887,12.536-2.216,17.55,4.887" fill="#fff" fill-rule="evenodd"/>
    <path id="Path_3629" data-name="Path 3629" d="M-2985.044,2340.931c-1.186,10.674-9.449,11.607-11.614,11.7a13.753,13.753,0,0,1,1.183-2.367c-6.944,1.4-12.909-4.617-12.909-4.617a19.688,19.688,0,0,1,7.81-7.42,7,7,0,0,1-2.021-2.186c5.078-1.888,12.536-2.216,17.551,4.887" fill="#5db67d" fill-rule="evenodd"/>
    <path id="Path_3630" data-name="Path 3630" d="M-2998.547,2346.235a.961.961,0,0,1,.79.415.961.961,0,0,1,.023,1.056c-.005,0-.192.306-.419.72,3.206-.564,8.051-2.69,9.038-10.309-4.769-6.455-11.409-5.7-15.013-4.645a7.49,7.49,0,0,0,1.028.9.96.96,0,0,1,.41.875.961.961,0,0,1-.556.788,18.874,18.874,0,0,0-6.973,6.373c1.578,1.355,6.3,4.89,11.482,3.849A.945.945,0,0,1-2998.547,2346.235Zm-1.183,4.288a.961.961,0,0,1-.768-.383.966.966,0,0,1-.142-.886,8.687,8.687,0,0,1,.367-.893c-6.5.2-11.629-4.869-11.865-5.107a.959.959,0,0,1-.144-1.164,21.122,21.122,0,0,1,6.956-7.1,6.133,6.133,0,0,1-1.2-1.6.964.964,0,0,1-.03-.778.959.959,0,0,1,.558-.544c2.782-1.035,12.353-3.714,18.67,5.234a.972.972,0,0,1,.17.659c-1.243,11.184-9.9,12.438-12.526,12.557h-.043" fill="#6f0911" fill-rule="evenodd"/>
    <path id="Path_3631" data-name="Path 3631" d="M-2983.245,2372.934c3.268-3.506,7.268-8.408,9.422-13.332a9.241,9.241,0,0,0-2.585-10.8,19.014,19.014,0,0,0-12.008-4.738,19.015,19.015,0,0,0-12.007,4.738,9.24,9.24,0,0,0-2.586,10.8c2.154,4.924,6.155,9.826,9.423,13.332a7.066,7.066,0,0,0,10.341,0" fill="#fff" fill-rule="evenodd"/>
    <path id="Path_3632" data-name="Path 3632" d="M-2980.174,2376.007c3.268-3.507,7.27-8.409,9.423-13.333a9.239,9.239,0,0,0-2.585-10.8,19.012,19.012,0,0,0-12.008-4.739,19.01,19.01,0,0,0-12.007,4.739,9.238,9.238,0,0,0-2.586,10.8c2.154,4.924,6.154,9.826,9.422,13.333a7.067,7.067,0,0,0,10.341,0" fill="#eb166e" fill-rule="evenodd"/>
    <path id="Path_3633" data-name="Path 3633" d="M-2992.1,2344.5a12.972,12.972,0,0,0-.151,1.89c0,5.032,2.052,7.018,3.839,8.871,1.787-1.853,3.839-3.839,3.839-8.871a13.247,13.247,0,0,0-.149-1.89,16.143,16.143,0,0,0-3.69-.431,16.113,16.113,0,0,0-3.688.431" fill="#fff" fill-rule="evenodd"/>
    <path id="Path_3634" data-name="Path 3634" d="M-2989.391,2347.164a13.142,13.142,0,0,0-.15,1.89c0,5.032,2.053,7.017,3.84,8.87,1.786-1.853,3.839-3.838,3.839-8.87a13.109,13.109,0,0,0-.151-1.89,16.18,16.18,0,0,0-3.688-.431,16.193,16.193,0,0,0-3.69.431" fill="#5db67d" fill-rule="evenodd"/>
    <path id="Path_3635" data-name="Path 3635" d="M-2991.593,2367.948a1.154,1.154,0,0,1-1.152-1.152v-.62a1.152,1.152,0,0,1,1.152-1.152,1.151,1.151,0,0,1,1.152,1.152v.62a1.152,1.152,0,0,1-1.152,1.152" fill="#6f0911" fill-rule="evenodd"/>
    <path id="Path_3636" data-name="Path 3636" d="M-2985.239,2367.948a1.153,1.153,0,0,1-1.152-1.152v-.62a1.152,1.152,0,0,1,1.152-1.152,1.152,1.152,0,0,1,1.152,1.152v.62a1.154,1.154,0,0,1-1.152,1.152" fill="#6f0911" fill-rule="evenodd"/>
    <path id="Path_3637" data-name="Path 3637" d="M-2994.768,2360.975a1.152,1.152,0,0,1-1.152-1.152v-.62a1.151,1.151,0,0,1,1.152-1.152,1.152,1.152,0,0,1,1.152,1.152v.62a1.152,1.152,0,0,1-1.152,1.152" fill="#6f0911" fill-rule="evenodd"/>
    <path id="Path_3638" data-name="Path 3638" d="M-2988.416,2360.975a1.152,1.152,0,0,1-1.152-1.152v-.62a1.152,1.152,0,0,1,1.152-1.152,1.152,1.152,0,0,1,1.152,1.152v.62a1.152,1.152,0,0,1-1.152,1.152" fill="#6f0911" fill-rule="evenodd"/>
    <path id="Path_3639" data-name="Path 3639" d="M-2982.064,2360.975a1.152,1.152,0,0,1-1.152-1.152v-.62a1.152,1.152,0,0,1,1.152-1.152,1.152,1.152,0,0,1,1.153,1.152v.62a1.153,1.153,0,0,1-1.153,1.152" fill="#6f0911" fill-rule="evenodd"/>
    <path id="Path_3640" data-name="Path 3640" d="M-2997.439,2353.555c2.328-1.1,4.952-2.225,6.738-6.929a14.064,14.064,0,0,0,.662-2.472,18.685,18.685,0,0,0-8.714,3.382,11.66,11.66,0,0,0,1.314,6.019" fill="#fff" fill-rule="evenodd"/>
    <path id="Path_3641" data-name="Path 3641" d="M-2979.393,2353.555a11.658,11.658,0,0,0,1.314-6.019,18.68,18.68,0,0,0-8.714-3.382,14.085,14.085,0,0,0,.662,2.472c1.786,4.7,4.41,5.832,6.738,6.929" fill="#fff" fill-rule="evenodd"/>
    <path id="Path_3642" data-name="Path 3642" d="M-2985.461,2335.845a.964.964,0,0,1-.511-.147.96.96,0,0,1-.3-1.324c2.209-3.506,5.379-5.423,10.279-6.217a.959.959,0,0,1,1.1.793.958.958,0,0,1-.793,1.1c-4.367.708-7.048,2.307-8.962,5.346a.958.958,0,0,1-.813.448" fill="#6f0911" fill-rule="evenodd"/>
    <path id="Path_3643" data-name="Path 3643" d="M-2994.724,2356.223c2.327-1.1,4.951-2.225,6.738-6.93a14.009,14.009,0,0,0,.661-2.473,18.7,18.7,0,0,0-8.713,3.383,11.659,11.659,0,0,0,1.314,6.02" fill="#5db67d" fill-rule="evenodd"/>
    <path id="Path_3644" data-name="Path 3644" d="M-2995.3,2341.054a.961.961,0,0,1-.938-.759.96.96,0,0,1,.737-1.14c.343-.073.681-.149,1.013-.224a.961.961,0,0,1,1.147.726.957.957,0,0,1-.724,1.147c-.339.077-.684.153-1.032.227a.957.957,0,0,1-.2.023" fill="#6f0911" fill-rule="evenodd"/>
    <path id="Path_3645" data-name="Path 3645" d="M-2990.941,2339.984a.961.961,0,0,1-.922-.693.962.962,0,0,1,.657-1.19,20.317,20.317,0,0,0,2.407-.826.962.962,0,0,1,1.263.5.96.96,0,0,1-.5,1.263,22.29,22.29,0,0,1-2.641.911.99.99,0,0,1-.267.037" fill="#6f0911" fill-rule="evenodd"/>
    <path id="Path_3646" data-name="Path 3646" d="M-2976.678,2356.223a11.676,11.676,0,0,0,1.313-6.02,18.7,18.7,0,0,0-8.713-3.383,14.158,14.158,0,0,0,.661,2.473c1.787,4.705,4.411,5.831,6.739,6.93" fill="#5db67d" fill-rule="evenodd"/>
    <path id="Path_3647" data-name="Path 3647" d="M-2997.822,2348.065a9.736,9.736,0,0,0,.876,4.193,9.649,9.649,0,0,0,5.347-5.972c.115-.3.221-.631.317-.98A17.93,17.93,0,0,0-2997.822,2348.065Zm.383,6.45a.975.975,0,0,1-.341-.062.958.958,0,0,1-.542-.52l-.073-.17a12.272,12.272,0,0,1-1.315-6.307.961.961,0,0,1,.41-.709,19.509,19.509,0,0,1,9.162-3.548.951.951,0,0,1,.8.3.963.963,0,0,1,.241.823,14.882,14.882,0,0,1-.71,2.643,11.846,11.846,0,0,1-7.039,7.368l-.186.088a.964.964,0,0,1-.41.092" fill="#6f0911" fill-rule="evenodd"/>
    <path id="Path_3648" data-name="Path 3648" d="M-2985.55,2345.306c.1.349.2.677.316.979a9.653,9.653,0,0,0,5.348,5.973,9.736,9.736,0,0,0,.876-4.193A17.928,17.928,0,0,0-2985.55,2345.306Zm6.157,9.209a.964.964,0,0,1-.41-.092l-.186-.088a11.846,11.846,0,0,1-7.039-7.369,14.952,14.952,0,0,1-.71-2.642.964.964,0,0,1,.241-.823.96.96,0,0,1,.8-.3,19.5,19.5,0,0,1,9.162,3.548.96.96,0,0,1,.41.709,12.272,12.272,0,0,1-1.315,6.307l-.073.17a.955.955,0,0,1-.542.52.975.975,0,0,1-.341.062" fill="#6f0911" fill-rule="evenodd"/>
    <path id="Path_3649" data-name="Path 3649" d="M-2988.416,2356.218a.962.962,0,0,1-.691-.294l-.143-.149a12.018,12.018,0,0,1-3.553-5.765.961.961,0,0,1,.7-1.166.959.959,0,0,1,1.167.7,9.388,9.388,0,0,0,2.525,4.331,9.315,9.315,0,0,0,2.606-4.673.959.959,0,0,1,1.141-.735.959.959,0,0,1,.736,1.14,11.842,11.842,0,0,1-3.648,6.173l-.144.148a.959.959,0,0,1-.691.295" fill="#6f0911" fill-rule="evenodd"/>
    <path id="Path_3650" data-name="Path 3650" d="M-2988.416,2345.026a18.2,18.2,0,0,0-11.394,4.517,8.305,8.305,0,0,0-2.319,9.674c2.143,4.9,6.21,9.808,9.245,13.062a6.044,6.044,0,0,0,4.468,1.945,6.044,6.044,0,0,0,4.468-1.945h0c3.036-3.255,7.1-8.165,9.245-13.062a8.305,8.305,0,0,0-2.318-9.674A18.21,18.21,0,0,0-2988.416,2345.026Zm0,31.118a8.051,8.051,0,0,1-5.872-2.555c-3.137-3.364-7.349-8.456-9.6-13.6a10.232,10.232,0,0,1,2.852-11.921,20.1,20.1,0,0,1,12.62-4.96,20.1,20.1,0,0,1,12.621,4.961,10.232,10.232,0,0,1,2.851,11.92c-2.249,5.146-6.462,10.237-9.6,13.6a8.049,8.049,0,0,1-5.872,2.555" fill="#6f0911" fill-rule="evenodd"/>
  </g>
</svg>
